<svg width="24" height="24" viewBox="0 0 24 24" fill="none" xmlns="http://www.w3.org/2000/svg">
<path d="M15.002 11.0006V11.0106M5.17496 8.37863C4.73636 8.04153 4.39951 7.58973 4.20163 7.07316C4.00374 6.55658 3.95254 5.99536 4.05368 5.45151C4.15482 4.90765 4.40436 4.40235 4.77472 3.99146C5.14508 3.58056 5.62184 3.28006 6.1523 3.12318C6.68276 2.96629 7.24628 2.95913 7.78056 3.10249C8.31483 3.24584 8.79907 3.53413 9.17976 3.93548C9.56044 4.33684 9.82273 4.83563 9.93766 5.37674C10.0526 5.91785 10.0157 6.48019 9.83097 7.00163M16.002 4.00063V7.80363C17.2396 8.51975 18.1818 9.65308 18.66 11.0006H20.001C20.2662 11.0006 20.5205 11.106 20.7081 11.2935C20.8956 11.4811 21.001 11.7354 21.001 12.0006V14.0006C21.001 14.2658 20.8956 14.5202 20.7081 14.7077C20.5205 14.8953 20.2662 15.0006 20.001 15.0006H18.659C18.323 15.9506 17.752 16.8006 17.001 17.4736V19.5006C17.001 19.8985 16.8429 20.28 16.5616 20.5613C16.2803 20.8426 15.8988 21.0006 15.501 21.0006C15.1031 21.0006 14.7216 20.8426 14.4403 20.5613C14.159 20.28 14.001 19.8985 14.001 19.5006V18.9176C13.6705 18.973 13.336 19.0007 13.001 19.0006H9.00097C8.66591 19.0007 8.33142 18.973 8.00097 18.9176V19.5006C8.00097 19.8985 7.84293 20.28 7.56163 20.5613C7.28032 20.8426 6.89879 21.0006 6.50097 21.0006C6.10314 21.0006 5.72161 20.8426 5.44031 20.5613C5.159 20.28 5.00097 19.8985 5.00097 19.5006V17.4736C4.09493 16.6636 3.45624 15.5975 3.16945 14.4165C2.88266 13.2355 2.96128 11.9952 3.39491 10.8598C3.82854 9.7245 4.59673 8.7476 5.5978 8.05846C6.59887 7.36932 7.78562 7.00043 9.00097 7.00063H11.501L16.001 4.00063H16.002Z" stroke="#354052" stroke-width="2" stroke-linecap="round" stroke-linejoin="round"/>
</svg>
